<svg width="804" height="963" viewBox="0 0 804 963" fill="none" xmlns="http://www.w3.org/2000/svg">
<path d="M0 691C0 684.373 5.37258 679 12 679H311C317.627 679 323 684.373 323 691C323 697.627 317.627 703 311 703H12C5.37258 703 0 697.627 0 691Z" fill="url(#paint0_linear)"/>
<path d="M611 963C928.564 963 1186 705.564 1186 388C1186 70.4363 928.564 -187 611 -187C293.436 -187 36 70.4363 36 388C36 523.807 83.0818 648.618 161.814 747H396C402.075 747 407 751.925 407 758C407 764.075 402.075 769 396 769H180.336C285.682 887.989 439.581 963 611 963Z" fill="url(#paint1_linear)"/>
<defs>
<linearGradient id="paint0_linear" x1="611" y1="-187" x2="611" y2="963" gradientUnits="userSpaceOnUse">
<stop stop-color="#93F5E4"/>
<stop offset="0.479167" stop-color="#95FABE"/>
<stop offset="0.479267" stop-color="#95FABE"/>
<stop offset="1" stop-color="#97FF95"/>
</linearGradient>
<linearGradient id="paint1_linear" x1="611" y1="-187" x2="611" y2="963" gradientUnits="userSpaceOnUse">
<stop stop-color="#93F5E4"/>
<stop offset="0.479167" stop-color="#95FABE"/>
<stop offset="0.479267" stop-color="#95FABE"/>
<stop offset="1" stop-color="#97FF95"/>
</linearGradient>
</defs>
</svg>
