<svg width="544" height="414" viewBox="0 0 544 414" fill="none" xmlns="http://www.w3.org/2000/svg">
<g clip-path="url(#clip0)">
<path d="M467.493 164.693C443.583 70.6738 360.967 2.80501 263.993 0.0828491C212.725 -1.35627 158.778 15.6467 119.5 75.1465C49.2867 181.509 123.815 255.008 175.774 289.934C200.876 306.841 223.495 327.171 242.975 350.334C278.071 391.981 345.589 443.734 426 362.645C484.282 303.872 483.42 227.319 467.493 164.693Z" fill="white"/>
<path opacity="0.1" d="M359.8 253.696L409 204.646L359.8 155.596L374.8 140.646L439 204.646L374.8 268.646L359.8 253.696Z" fill="black"/>
<path opacity="0.1" d="M219.3 208.146H239.3V188.146H219.3V208.146ZM319.7 188.146H299.7V208.146H319.7V188.146ZM259.5 208.146H279.5V188.146H259.5V208.146Z" fill="black"/>
<path opacity="0.1" d="M192.2 253.196L142.95 204.146L192.15 155.096L177.15 140.146L113 204.146L177.2 268.146L192.2 253.196Z" fill="black"/>
<path d="M544 376.145C544 384.429 422.221 413.145 272 413.145C121.779 413.145 0 384.429 0 376.145C0 367.861 121.779 383.145 272 383.145C422.221 383.145 544 367.861 544 376.145Z" fill="#3F3D56"/>
<path opacity="0.1" d="M544 376.145C544 384.429 422.221 413.145 272 413.145C121.779 413.145 0 384.429 0 376.145C0 367.861 121.779 383.145 272 383.145C422.221 383.145 544 367.861 544 376.145Z" fill="black"/>
<path d="M272 391.145C422.221 391.145 544 384.429 544 376.145C544 367.861 422.221 361.145 272 361.145C121.779 361.145 0 367.861 0 376.145C0 384.429 121.779 391.145 272 391.145Z" fill="#3F3D56"/>
<path d="M316.348 303.975C316.348 335.983 336.428 361.884 361.243 361.884Z" fill="#3F3D56"/>
<path d="M361.243 361.884C361.243 329.516 383.652 303.325 411.344 303.325Z" fill="#96FBB9"/>
<path d="M332.614 306.877C332.614 337.281 345.419 361.884 361.243 361.884Z" fill="#96FBB9"/>
<path d="M361.243 361.884C361.243 320.525 387.144 287.058 419.152 287.058Z" fill="#3F3D56"/>
<path d="M351.799 362.292C351.799 362.292 358.165 362.096 360.084 360.729C362.003 359.363 369.878 357.731 370.354 359.923C370.83 362.114 379.923 370.822 372.734 370.88C365.546 370.938 356.032 369.76 354.117 368.593C352.202 367.427 351.799 362.292 351.799 362.292Z" fill="#A8A8A8"/>
<path opacity="0.2" d="M372.863 370.117C365.674 370.175 356.16 368.997 354.245 367.831C352.787 366.942 352.206 363.754 352.011 362.284C351.876 362.289 351.799 362.292 351.799 362.292C351.799 362.292 352.202 367.427 354.117 368.593C356.032 369.76 365.546 370.938 372.734 370.88C374.809 370.863 375.526 370.125 375.487 369.031C375.198 369.692 374.407 370.104 372.863 370.117Z" fill="black"/>
<path d="M432.766 191.425C432.766 191.425 417.372 179.737 416.204 184.022C415.035 188.306 427.499 198.044 427.499 198.044L432.766 191.425Z" fill="#FFB9B9"/>
<path opacity="0.1" d="M432.766 191.425C432.766 191.425 417.372 179.737 416.204 184.022C415.035 188.306 427.499 198.044 427.499 198.044L432.766 191.425Z" fill="black"/>
<path d="M483.586 154.42C483.586 154.42 465.28 187.138 464.891 191.812C464.501 196.486 464.501 196.875 462.943 196.486C461.385 196.096 439.963 193.759 438.015 194.538C436.068 195.317 432.173 189.864 432.173 189.864C432.173 189.864 424.773 197.265 426.331 198.823C427.889 200.381 432.562 201.16 433.341 203.107C434.12 205.054 435.289 207.002 438.794 206.612C442.3 206.223 466.059 212.844 469.175 211.676C472.291 210.507 473.07 208.56 474.628 208.56C476.186 208.56 479.302 207.002 479.302 206.612C479.302 206.223 490.208 185.58 490.208 185.58C490.208 185.58 503.061 157.536 483.586 154.42Z" fill="#D0CDE1"/>
<path opacity="0.1" d="M483.586 154.42C483.586 154.42 465.28 187.138 464.891 191.812C464.501 196.486 464.501 196.875 462.943 196.486C461.385 196.096 439.963 193.759 438.015 194.538C436.068 195.317 432.173 189.864 432.173 189.864C432.173 189.864 424.773 197.265 426.331 198.823C427.889 200.381 432.562 201.16 433.341 203.107C434.12 205.054 435.289 207.002 438.794 206.612C442.3 206.223 466.059 212.844 469.175 211.676C472.291 210.507 473.07 208.56 474.628 208.56C476.186 208.56 479.302 207.002 479.302 206.612C479.302 206.223 490.208 185.58 490.208 185.58C490.208 185.58 503.061 157.536 483.586 154.42Z" fill="black"/>
<path d="M457.027 132.851C456.861 134.92 456.895 136.999 457.127 139.061C457.718 143.536 459.778 148.201 457.832 152.378C457.126 153.894 455.929 155.215 455.278 156.749C453.898 159.998 455.149 163.6 454.961 167.057C454.719 171.523 451.879 175.826 447.558 178.274C454.94 178.503 461.96 174.853 466.605 169.88C471.249 164.906 473.836 158.738 475.775 152.566C476.772 149.667 477.411 146.658 477.678 143.605C477.832 141.851 477.627 140.084 477.073 138.412C476.391 136.779 475.493 135.245 474.402 133.85C473.239 132.215 472.044 130.548 470.328 129.331C468.215 127.833 464.139 126.328 461.336 126.546C457.897 126.814 457.172 130.465 457.027 132.851Z" fill="#2F2E41"/>
<path d="M468.396 145.073C468.396 145.073 472.68 160.263 469.175 164.547C465.67 168.832 490.208 162.6 490.208 162.6C490.208 162.6 478.133 150.525 483.976 142.736L468.396 145.073Z" fill="#FFB9B9"/>
<path opacity="0.1" d="M468.396 145.073C468.396 145.073 472.68 160.263 469.175 164.547C465.67 168.832 490.208 162.6 490.208 162.6C490.208 162.6 478.133 150.525 483.976 142.736L468.396 145.073Z" fill="black"/>
<path d="M359.8 244.196L409 195.146L359.8 146.096L374.8 131.146L439 195.146L374.8 259.146L359.8 244.196Z" fill="#96FBB9"/>
<path d="M454.374 347.609V358.904L460.217 365.915L465.28 363.578L463.722 347.219L454.374 347.609Z" fill="#FFB9B9"/>
<path d="M456.711 358.125C456.711 358.125 455.153 352.672 452.427 356.567C449.7 360.462 446.974 369.031 445.416 369.42C443.858 369.81 432.952 381.884 443.858 381.884C454.764 381.884 458.269 376.821 458.269 376.821C458.269 376.821 469.175 372.536 469.175 371.757C469.175 370.978 467.617 356.567 466.838 356.567C466.059 356.567 465.669 359.294 463.722 359.294C461.775 359.294 456.711 358.125 456.711 358.125Z" fill="#2F2E41"/>
<path d="M480.47 349.556L480.081 360.073L489.428 363.967V348.777L480.47 349.556Z" fill="#FFB9B9"/>
<path d="M490.597 360.073C490.597 360.073 485.534 354.62 482.807 355.788C481.459 356.331 480.156 356.982 478.912 357.736C478.912 357.736 477.354 362.799 476.575 367.084C475.796 371.368 475.407 373.315 474.628 374.873C473.849 376.431 473.07 382.274 480.86 383.053C488.65 383.832 490.987 379.547 490.987 379.547L492.934 369.42C492.934 369.42 492.155 360.073 490.597 360.073Z" fill="#2F2E41"/>
<path d="M459.438 237.382C459.438 237.382 448.142 262.699 449.7 285.679C449.7 285.679 445.805 294.638 448.142 308.66C450.479 322.681 453.595 350.725 453.595 350.725C453.595 350.725 464.112 351.893 464.891 349.946C464.891 349.946 465.67 330.471 466.449 329.692C467.227 328.913 466.059 310.997 464.891 307.491C463.722 303.986 475.796 269.321 475.796 269.321L472.68 226.087L459.438 237.382Z" fill="#2F2E41"/>
<path opacity="0.1" d="M459.438 237.382C459.438 237.382 448.142 262.699 449.7 285.679C449.7 285.679 445.805 294.638 448.142 308.66C450.479 322.681 453.595 350.725 453.595 350.725C453.595 350.725 464.112 351.893 464.891 349.946C464.891 349.946 465.67 330.471 466.449 329.692C467.227 328.913 466.059 310.997 464.891 307.491C463.722 303.986 475.796 269.321 475.796 269.321L472.68 226.087L459.438 237.382Z" fill="black"/>
<path d="M456.322 235.824L463.722 251.794C463.722 251.794 467.228 288.016 469.175 292.69C469.175 292.69 469.954 305.933 473.459 310.218C476.965 314.502 479.691 352.283 479.691 352.283C479.691 352.283 489.429 355.009 490.208 352.283C490.987 349.556 493.324 330.861 493.324 330.861C493.324 330.861 494.103 314.891 489.818 304.375C485.534 293.859 494.882 256.078 494.882 256.078C494.882 256.078 504.619 237.772 490.597 222.971L456.322 235.824Z" fill="#2F2E41"/>
<path d="M476.965 149.746C485.784 149.746 492.934 142.597 492.934 133.777C492.934 124.958 485.784 117.808 476.965 117.808C468.145 117.808 460.996 124.958 460.996 133.777C460.996 142.597 468.145 149.746 476.965 149.746Z" fill="#FFB9B9"/>
<path d="M491.766 157.926C491.766 157.926 475.017 157.926 472.68 159.873C472.103 160.423 471.336 160.73 470.538 160.73C469.741 160.73 468.974 160.423 468.396 159.873C468.396 159.873 462.554 160.263 460.996 164.937C459.438 169.611 454.764 175.843 454.764 175.843C454.764 175.843 447.753 180.906 451.648 194.149C455.543 207.391 452.427 228.814 452.427 228.814C452.427 228.814 449.311 233.487 452.427 235.435C455.543 237.382 456.711 238.161 456.322 239.719C455.932 241.277 491.766 226.866 491.766 224.14C491.766 221.413 490.987 219.076 491.766 217.908C492.545 216.739 493.324 214.792 492.545 212.844C491.766 210.897 493.324 210.507 492.934 208.56C492.545 206.612 494.882 192.201 496.44 185.969C497.998 179.737 497.608 158.315 491.766 157.926Z" fill="#D0CDE1"/>
<path d="M432.766 196.099C432.766 196.099 417.372 184.411 416.204 188.696C415.035 192.98 427.499 202.717 427.499 202.717L432.766 196.099Z" fill="#FFB9B9"/>
<path d="M483.586 159.873C483.586 159.873 465.28 192.591 464.891 197.265C464.501 201.939 464.501 202.328 462.943 201.939C461.385 201.549 439.963 199.212 438.015 199.991C436.068 200.77 432.173 195.317 432.173 195.317C432.173 195.317 424.773 202.718 426.331 204.276C427.889 205.834 432.562 206.612 433.341 208.56C434.12 210.507 435.289 212.455 438.794 212.065C442.3 211.676 466.059 218.297 469.175 217.129C472.291 215.96 473.07 214.013 474.628 214.013C476.186 214.013 479.302 212.455 479.302 212.065C479.302 211.676 490.208 191.033 490.208 191.033C490.208 191.033 503.061 162.989 483.586 159.873Z" fill="#D0CDE1"/>
<path d="M469.057 143.98C468.836 142.398 468.026 140.963 467.61 139.421C467.285 138.187 467.213 136.9 467.398 135.637C467.583 134.375 468.022 133.163 468.688 132.074C470.978 128.374 475.475 126.736 478.612 123.719C478.677 125.256 479.743 126.569 480.921 127.557C482.099 128.545 483.451 129.346 484.448 130.516C485.407 131.751 486.106 133.167 486.503 134.678C487.117 136.43 487.393 138.282 487.315 140.137C487.27 141.063 487.037 141.971 486.63 142.805C486.224 143.639 485.652 144.382 484.949 144.988C483.781 145.911 482.149 146.438 481.584 147.816C481.362 148.505 481.298 149.234 481.397 149.951C481.664 154.236 481.914 158.598 480.905 162.771C479.896 166.944 477.424 170.976 473.549 172.826C476.733 173.052 479.984 173.272 483.074 172.468C486.163 171.665 489.117 169.641 490.182 166.632C490.708 165.147 490.757 163.496 491.504 162.11C493.393 158.601 498.611 158.441 501.174 155.389C502.199 154.167 502.696 152.593 503.063 151.041C505.227 141.909 503.707 132.212 500.412 123.424C499.277 120.395 497.863 117.345 495.428 115.216C493.355 113.405 490.708 112.407 488.091 111.554C484.271 110.31 480.336 109.291 476.321 109.159C474.577 109.057 472.828 109.261 471.154 109.763C469.502 110.36 467.964 111.236 466.608 112.352C460.319 117.246 456.036 125.068 456.605 133.017C456.949 137.827 458.986 142.379 461.605 146.428C462.52 147.845 464.684 150.865 466.695 149.974C468.518 149.166 469.296 145.688 469.057 143.98Z" fill="#2F2E41"/>
<path d="M219.3 198.646H239.3V178.646H219.3V198.646ZM319.7 178.646H299.7V198.646H319.7V178.646ZM259.5 198.646H279.5V178.646H259.5V198.646Z" fill="#96FBB9"/>
<path d="M103.103 119.045C112.397 119.045 119.931 113.168 119.931 105.919C119.931 98.6695 112.397 92.7928 103.103 92.7928C93.8088 92.7928 86.2745 98.6695 86.2745 105.919C86.2745 113.168 93.8088 119.045 103.103 119.045Z" fill="#2F2E41"/>
<path d="M105.964 196.287C105.964 196.287 121.109 197.297 123.802 195.278C126.494 193.258 137.938 197.97 138.948 200.663C139.957 203.355 122.792 203.692 120.1 203.692C117.407 203.692 104.617 207.731 104.617 207.731L105.964 196.287Z" fill="#A0616A"/>
<path d="M74.7761 353.068C74.7761 353.068 67.7176 370.867 71.4003 373.015C75.083 375.164 113.751 373.629 113.751 373.629C113.751 373.629 120.196 369.64 112.831 366.878C112.831 366.878 106.693 366.571 102.703 364.116C98.7136 361.661 94.1102 357.057 94.1102 357.057C94.1102 357.057 93.8033 350.306 91.3482 351.84C90.6137 352.324 89.9885 352.956 89.5128 353.696C89.0372 354.436 88.7215 355.267 88.5862 356.136L74.7761 353.068Z" fill="#2F2E41"/>
<path opacity="0.1" d="M74.7761 353.068C74.7761 353.068 67.7176 370.867 71.4003 373.015C75.083 375.164 113.751 373.629 113.751 373.629C113.751 373.629 120.196 369.64 112.831 366.878C112.831 366.878 106.693 366.571 102.703 364.116C98.7136 361.661 94.1102 357.057 94.1102 357.057C94.1102 357.057 93.8033 350.306 91.3482 351.84C90.6137 352.324 89.9885 352.956 89.5128 353.696C89.0372 354.436 88.7215 355.267 88.5862 356.136L74.7761 353.068Z" fill="black"/>
<path d="M192.2 243.696L142.95 194.646L192.15 145.596L177.15 130.646L113 194.646L177.2 258.646L192.2 243.696Z" fill="#96FBB9"/>
<path d="M63.8926 358.513C63.8926 358.513 56.1516 378.034 60.1904 380.39C64.2292 382.746 106.637 381.063 106.637 381.063C106.637 381.063 113.705 376.687 105.627 373.658C105.627 373.658 98.8958 373.322 94.5204 370.629C90.145 367.937 85.0965 362.888 85.0965 362.888C85.0965 362.888 84.7599 355.484 82.0674 357.167C81.2618 357.697 80.5762 358.391 80.0545 359.202C79.5328 360.014 79.1867 360.925 79.0383 361.878L63.8926 358.513Z" fill="#2F2E41"/>
<path d="M103.608 234.656L98.8958 277.063C98.8958 277.063 97.213 297.258 92.1645 301.633C92.1645 301.633 92.1645 308.028 90.4816 310.047L88.1256 336.636C88.1256 336.636 91.4913 346.396 91.1547 348.079C90.8182 349.762 92.501 355.147 92.1644 355.82C91.8279 356.493 76.0091 355.82 76.0091 355.82L79.3748 301.633L89.8085 226.242L103.608 234.656Z" fill="#2F2E41"/>
<path opacity="0.1" d="M103.608 234.656L98.8958 277.063C98.8958 277.063 97.213 297.258 92.1645 301.633C92.1645 301.633 92.1645 308.028 90.4816 310.047L88.1256 336.636C88.1256 336.636 91.4913 346.396 91.1547 348.079C90.8182 349.762 92.501 355.147 92.1644 355.82C91.8279 356.493 76.0091 355.82 76.0091 355.82L79.3748 301.633L89.8085 226.242L103.608 234.656Z" fill="black"/>
<path d="M95.1936 233.31C95.1936 233.31 91.4913 267.976 89.8085 275.381C88.7504 280.257 88.0752 285.208 87.789 290.19C87.789 290.19 87.4525 300.96 84.4234 303.989C83.5371 304.866 82.8407 305.917 82.3775 307.075C81.9143 308.233 81.6942 309.474 81.7308 310.72C81.7308 310.72 78.7017 344.714 80.3845 348.752C82.0674 352.791 83.7502 356.157 82.0674 358.849C80.3845 361.542 61.8732 361.542 61.8732 359.522C61.8732 357.503 61.8732 355.82 60.8635 354.811C59.8538 353.801 60.8635 347.406 60.8635 347.406C60.8635 347.406 56.8247 317.452 60.527 308.701C64.2292 299.95 65.9121 276.054 65.9121 276.054C65.9121 276.054 63.2195 248.792 59.8538 244.416C56.4881 240.041 60.527 224.559 60.527 224.559L95.1936 233.31Z" fill="#2F2E41"/>
<path d="M85.7178 125.655C86.1091 126.547 87.0456 127.043 87.8982 127.513C92.8397 130.235 96.9761 134.182 101.051 138.084C100.034 134.638 100.251 130.945 101.664 127.641C102.151 126.515 102.788 125.304 102.44 124.127C102.185 123.261 101.448 122.637 100.734 122.085C99.0709 120.799 97.3328 119.613 95.5289 118.534C94.2687 117.78 91.6778 115.773 90.2316 115.991C90.1557 117.945 90.116 119.692 89.2604 121.518C89.0574 121.951 85.8674 125.996 85.7178 125.655Z" fill="#A0616A"/>
<path d="M102.935 129.983C110.556 129.983 116.734 123.805 116.734 116.184C116.734 108.563 110.556 102.385 102.935 102.385C95.3135 102.385 89.1353 108.563 89.1353 116.184C89.1353 123.805 95.3135 129.983 102.935 129.983Z" fill="#A0616A"/>
<path d="M103.608 148.831C103.608 148.831 105.964 137.051 99.2324 133.013C92.501 128.974 84.7599 124.262 84.7599 124.262C84.7599 124.262 82.4039 123.925 81.3942 128.974C81.3942 128.974 62.2098 132.676 60.1904 150.851C58.171 169.025 61.5367 195.614 61.5367 195.614C61.5367 195.614 58.5075 218.837 54.8053 231.29C54.8053 231.29 51.7762 233.983 65.2389 229.944C78.7017 225.905 102.262 241.387 102.262 241.387C102.262 241.387 104.617 239.031 104.617 237.348C104.617 235.666 107.31 225.905 107.31 225.905C107.31 225.905 109.666 184.507 110.676 179.795C111.685 175.084 106.637 149.504 103.608 148.831Z" fill="#575A89"/>
<path d="M99.6825 117.606C100.511 117.146 101.441 116.899 102.389 116.885C103.338 116.871 104.264 116.595 105.066 116.087C106.37 115.087 106.465 113.153 107.419 111.814C108.799 109.877 111.553 109.643 113.931 109.74C115.385 109.8 116.951 109.886 118.175 109.1C119.432 108.293 120.002 106.772 120.425 105.339C120.927 103.645 121.251 101.573 120.009 100.317C119.146 99.4446 117.785 99.2721 116.827 98.5059C115.834 97.7114 115.425 96.4185 114.885 95.2668C114.27 93.8636 113.298 92.6462 112.066 91.7362C110.259 90.4805 107.95 90.1989 105.75 90.2224C103.549 90.246 101.339 90.5353 99.1551 90.2653C97.3656 90.044 95.5814 89.4488 93.7977 89.7126C91.5248 90.0488 89.6444 91.7636 88.5245 93.7697C87.4045 95.7759 86.924 98.0658 86.458 100.316L85.1907 106.435C84.7976 108.333 84.4029 110.281 84.7063 112.195C85.3353 116.163 88.8448 119.318 89.0866 123.328C89.3171 122.221 89.8189 121.188 90.5469 120.322C91.275 119.456 92.2066 118.785 93.2581 118.368C93.5217 118.239 93.8212 118.203 94.108 118.265C94.4567 118.376 94.6604 118.725 94.8805 119.017C95.457 119.784 97.2682 120.946 98.2948 120.403C99.2134 119.916 98.5276 118.389 99.6825 117.606Z" fill="#2F2E41"/>
<path d="M64.9023 180.469C64.9023 180.469 62.5464 195.278 72.3069 193.931C72.3069 193.931 77.3554 193.258 78.0285 193.931C78.7017 194.604 103.608 190.229 106.973 186.527C106.973 186.527 111.012 185.181 113.032 187.2C115.051 189.219 135.245 191.239 129.187 185.181C123.129 179.122 113.705 177.776 113.705 177.776L100.915 178.449C100.915 178.449 94.1838 180.469 90.145 178.449C86.1062 176.43 74.6628 177.103 74.6628 177.103L64.9023 180.469Z" fill="#A0616A"/>
<path d="M78.7017 133.686C78.7017 133.686 63.5561 135.369 63.5561 157.245V185.181C63.5561 185.181 71.9703 181.478 73.6532 181.815C75.336 182.151 82.0674 177.439 82.0674 177.439C82.0674 177.439 89.8085 159.265 89.1353 154.216C88.4622 149.168 88.7987 134.359 78.7017 133.686Z" fill="#575A89"/>
<path d="M102.935 114.333C110.091 114.333 115.893 111.319 115.893 107.602C115.893 103.884 110.091 100.87 102.935 100.87C95.7782 100.87 89.9767 103.884 89.9767 107.602C89.9767 111.319 95.7782 114.333 102.935 114.333Z" fill="#2F2E41"/>
<path d="M90.8182 120.055C93.3276 120.055 95.3618 115.007 95.3618 108.78C95.3618 102.553 93.3276 97.5047 90.8182 97.5047C88.3088 97.5047 86.2745 102.553 86.2745 108.78C86.2745 115.007 88.3088 120.055 90.8182 120.055Z" fill="#2F2E41"/>
</g>
<defs>
<clipPath id="clip0">
<rect width="544" height="413.145" fill="white"/>
</clipPath>
</defs>
</svg>
