<svg width="196" height="59" viewBox="0 0 196 59" fill="none" xmlns="http://www.w3.org/2000/svg">
<path d="M3.696 13.824H9.888V48H3.696V13.824ZM40.0417 12.672V48H34.1378V44.112C33.4018 45.456 32.3458 46.512 30.9698 47.28C29.5938 48.016 28.0258 48.384 26.2657 48.384C24.1858 48.384 22.3298 47.856 20.6978 46.8C19.0658 45.744 17.7858 44.256 16.8578 42.336C15.9618 40.384 15.5138 38.16 15.5138 35.664C15.5138 33.168 15.9618 30.976 16.8578 29.088C17.7538 27.2 19.0178 25.744 20.6497 24.72C22.2818 23.664 24.1538 23.136 26.2657 23.136C27.9938 23.136 29.5298 23.504 30.8738 24.24C32.2498 24.944 33.3058 25.952 34.0418 27.264V12.672H40.0417ZM27.8498 43.68C29.8338 43.68 31.3698 42.992 32.4578 41.616C33.5778 40.24 34.1378 38.288 34.1378 35.76C34.1378 33.232 33.5938 31.28 32.5058 29.904C31.4178 28.528 29.8818 27.84 27.8978 27.84C25.8818 27.84 24.3138 28.528 23.1938 29.904C22.1058 31.248 21.5618 33.168 21.5618 35.664C21.5618 38.192 22.1058 40.16 23.1938 41.568C24.3138 42.976 25.8658 43.68 27.8498 43.68ZM67.7925 36.192H51.0885C51.2165 38.784 51.8565 40.704 53.0085 41.952C54.1925 43.168 55.9365 43.776 58.2405 43.776C60.8965 43.776 63.3605 42.912 65.6325 41.184L67.3605 45.312C66.2085 46.24 64.7845 46.992 63.0885 47.568C61.4245 48.112 59.7285 48.384 58.0005 48.384C54.0325 48.384 50.9125 47.264 48.6405 45.024C46.3685 42.784 45.2325 39.712 45.2325 35.808C45.2325 33.344 45.7285 31.152 46.7205 29.232C47.7125 27.312 49.1045 25.824 50.8965 24.768C52.6885 23.68 54.7205 23.136 56.9925 23.136C60.3205 23.136 62.9445 24.224 64.8645 26.4C66.8165 28.544 67.7925 31.504 67.7925 35.28V36.192ZM57.1365 27.456C55.5365 27.456 54.2245 27.936 53.2005 28.896C52.2085 29.824 51.5685 31.184 51.2805 32.976H62.5605C62.3685 31.152 61.8085 29.776 60.8805 28.848C59.9845 27.92 58.7365 27.456 57.1365 27.456ZM96.0574 23.76V48H90.1534V44.112C89.4174 45.456 88.3614 46.512 86.9854 47.28C85.6094 48.016 84.0414 48.384 82.2814 48.384C80.1694 48.384 78.2974 47.872 76.6654 46.848C75.0334 45.824 73.7694 44.368 72.8734 42.48C71.9774 40.592 71.5294 38.4 71.5294 35.904C71.5294 33.408 71.9774 31.2 72.8734 29.28C73.8014 27.328 75.0814 25.824 76.7134 24.768C78.3454 23.68 80.2014 23.136 82.2814 23.136C84.0414 23.136 85.6094 23.52 86.9854 24.288C88.3614 25.024 89.4174 26.064 90.1534 27.408V23.76H96.0574ZM83.9134 43.68C85.8974 43.68 87.4334 42.992 88.5214 41.616C89.6094 40.24 90.1534 38.304 90.1534 35.808C90.1534 33.248 89.6094 31.28 88.5214 29.904C87.4334 28.528 85.8814 27.84 83.8654 27.84C81.8814 27.84 80.3294 28.56 79.2094 30C78.1214 31.408 77.5774 33.376 77.5774 35.904C77.5774 38.4 78.1214 40.32 79.2094 41.664C80.3294 43.008 81.8974 43.68 83.9134 43.68ZM102.592 12.672H108.544V48H102.592V12.672ZM138.052 23.76L126.772 49.632C125.492 52.64 123.86 54.832 121.876 56.208C119.892 57.584 117.444 58.496 114.532 58.944L113.188 54.336C115.46 53.824 117.156 53.168 118.276 52.368C119.428 51.6 120.356 50.448 121.06 48.912L121.828 47.136L111.748 23.76H118.036L124.996 41.184L132.1 23.76H138.052Z" fill="#2F2E41"/>
<g clip-path="url(#clip0)">
<path d="M157.643 51.8064C157.644 52.4821 157.85 53.1438 158.237 53.7067L160.13 56.4663C160.454 56.9381 160.893 57.325 161.408 57.5926C161.922 57.8603 162.498 58.0003 163.082 58.0003H169.919C170.503 58.0003 171.079 57.8603 171.594 57.5926C172.109 57.325 172.547 56.9381 172.871 56.4663L174.764 53.7067C175.151 53.1437 175.357 52.4827 175.358 51.8064L175.363 47.6867H157.637L157.643 51.8064ZM147 21.9055C147 26.6718 148.823 31.0202 151.826 34.3428C153.657 36.3677 156.52 40.598 157.611 44.1665C157.615 44.1945 157.619 44.2224 157.623 44.2503H175.377C175.381 44.2224 175.385 44.1955 175.389 44.1665C176.48 40.598 179.343 36.3677 181.174 34.3428C184.177 31.0202 186 26.6718 186 21.9055C186 11.4437 177.237 2.96701 166.439 2.99924C155.137 3.03254 147 11.912 147 21.9055ZM166.5 13.3117C161.613 13.3117 157.636 17.1671 157.636 21.9055C157.636 22.8551 156.843 23.6242 155.864 23.6242C154.884 23.6242 154.091 22.8551 154.091 21.9055C154.091 15.2711 159.657 9.87424 166.5 9.87424C167.479 9.87424 168.273 10.6434 168.273 11.593C168.273 12.5426 167.479 13.3117 166.5 13.3117Z" fill="#2F2E41"/>
</g>
<defs>
<clipPath id="clip0">
<rect width="39" height="55" fill="white" transform="translate(147 3)"/>
</clipPath>
</defs>
</svg>
