<svg width="219" height="202" viewBox="0 0 219 202" fill="none" xmlns="http://www.w3.org/2000/svg">
<path fill-rule="evenodd" clip-rule="evenodd" d="M145.564 109.158C167.254 94.64 187.98 72.802 183.642 56.82C179.304 40.838 149.902 30.712 117.367 29.736C84.7115 28.638 49.0435 36.69 42.0545 56.332C35.0655 75.974 56.7555 107.206 79.048 119.162C101.22 131.118 123.995 123.798 145.564 109.158ZM88.5 72C86.567 72 85 73.567 85 75.5C85 77.433 86.567 79 88.5 79H135.5C137.433 79 139 77.433 139 75.5C139 73.567 137.433 72 135.5 72H88.5ZM85 56.5C85 54.567 86.567 53 88.5 53H135.5C137.433 53 139 54.567 139 56.5C139 58.433 137.433 60 135.5 60H88.5C86.567 60 85 58.433 85 56.5ZM88.5 91C86.567 91 85 92.567 85 94.5C85 96.433 86.567 98 88.5 98H135.5C137.433 98 139 96.433 139 94.5C139 92.567 137.433 91 135.5 91H88.5Z" fill="white"/>
</svg>
