<svg width="804" height="963" viewBox="0 0 804 963" fill="none" xmlns="http://www.w3.org/2000/svg">
<path d="M0 691C0 684.373 5.37258 679 12 679H311C317.627 679 323 684.373 323 691C323 697.627 317.627 703 311 703H12C5.37258 703 0 697.627 0 691Z" fill="url(#paint0_linear)"/>
<path d="M611 963C928.564 963 1186 705.564 1186 388C1186 70.4363 928.564 -187 611 -187C293.436 -187 36 70.4363 36 388C36 523.807 83.0818 648.618 161.814 747H396C402.075 747 407 751.925 407 758C407 764.075 402.075 769 396 769H180.336C285.682 887.989 439.581 963 611 963Z" fill="url(#paint1_linear)"/>
<g clip-path="url(#clip0)">
<path d="M611.493 395.693C587.583 301.674 504.967 233.805 407.993 231.083C356.725 229.644 302.778 246.647 263.5 306.146C193.287 412.509 267.815 486.008 319.774 520.934C344.876 537.841 367.495 558.171 386.975 581.334C422.071 622.981 489.589 674.734 570 593.645C628.282 534.872 627.42 458.319 611.493 395.693Z" fill="white"/>
<path opacity="0.1" d="M503.8 484.696L553 435.646L503.8 386.596L518.8 371.646L583 435.646L518.8 499.646L503.8 484.696Z" fill="black"/>
<path opacity="0.1" d="M363.3 439.146H383.3V419.146H363.3V439.146ZM463.7 419.146H443.7V439.146H463.7V419.146ZM403.5 439.146H423.5V419.146H403.5V439.146Z" fill="black"/>
<path opacity="0.1" d="M336.2 484.196L286.95 435.146L336.15 386.096L321.15 371.146L257 435.146L321.2 499.146L336.2 484.196Z" fill="black"/>
<path d="M688 607.145C688 615.429 566.221 644.145 416 644.145C265.779 644.145 144 615.429 144 607.145C144 598.861 265.779 614.145 416 614.145C566.221 614.145 688 598.861 688 607.145Z" fill="#3F3D56"/>
<path opacity="0.1" d="M688 607.145C688 615.429 566.221 644.145 416 644.145C265.779 644.145 144 615.429 144 607.145C144 598.861 265.779 614.145 416 614.145C566.221 614.145 688 598.861 688 607.145Z" fill="black"/>
<path d="M416 622.145C566.221 622.145 688 615.429 688 607.145C688 598.861 566.221 592.145 416 592.145C265.779 592.145 144 598.861 144 607.145C144 615.429 265.779 622.145 416 622.145Z" fill="#3F3D56"/>
<path d="M460.348 534.975C460.348 566.983 480.428 592.884 505.243 592.884Z" fill="#3F3D56"/>
<path d="M505.243 592.884C505.243 560.516 527.652 534.325 555.344 534.325Z" fill="#96FBB9"/>
<path d="M476.614 537.877C476.614 568.281 489.419 592.884 505.243 592.884Z" fill="#96FBB9"/>
<path d="M505.243 592.884C505.243 551.525 531.144 518.058 563.152 518.058Z" fill="#3F3D56"/>
<path d="M495.799 593.292C495.799 593.292 502.165 593.096 504.084 591.729C506.003 590.363 513.878 588.731 514.354 590.923C514.83 593.114 523.923 601.822 516.734 601.88C509.546 601.938 500.032 600.76 498.117 599.593C496.202 598.427 495.799 593.292 495.799 593.292Z" fill="#A8A8A8"/>
<path opacity="0.2" d="M516.863 601.117C509.674 601.175 500.16 599.997 498.245 598.831C496.787 597.942 496.206 594.754 496.011 593.284C495.876 593.289 495.799 593.292 495.799 593.292C495.799 593.292 496.202 598.427 498.117 599.593C500.032 600.76 509.546 601.938 516.734 601.88C518.809 601.863 519.526 601.125 519.487 600.031C519.198 600.692 518.407 601.104 516.863 601.117Z" fill="black"/>
<path d="M576.766 422.425C576.766 422.425 561.372 410.737 560.204 415.022C559.035 419.306 571.499 429.044 571.499 429.044L576.766 422.425Z" fill="#FFB9B9"/>
<path opacity="0.1" d="M576.766 422.425C576.766 422.425 561.372 410.737 560.204 415.022C559.035 419.306 571.499 429.044 571.499 429.044L576.766 422.425Z" fill="black"/>
<path d="M627.586 385.42C627.586 385.42 609.28 418.138 608.891 422.812C608.501 427.486 608.501 427.875 606.943 427.486C605.385 427.096 583.963 424.759 582.015 425.538C580.068 426.317 576.173 420.864 576.173 420.864C576.173 420.864 568.773 428.265 570.331 429.823C571.889 431.381 576.562 432.16 577.341 434.107C578.12 436.054 579.289 438.002 582.794 437.612C586.3 437.223 610.059 443.844 613.175 442.676C616.291 441.507 617.07 439.56 618.628 439.56C620.186 439.56 623.302 438.002 623.302 437.612C623.302 437.223 634.208 416.58 634.208 416.58C634.208 416.58 647.061 388.536 627.586 385.42Z" fill="#D0CDE1"/>
<path opacity="0.1" d="M627.586 385.42C627.586 385.42 609.28 418.138 608.891 422.812C608.501 427.486 608.501 427.875 606.943 427.486C605.385 427.096 583.963 424.759 582.015 425.538C580.068 426.317 576.173 420.864 576.173 420.864C576.173 420.864 568.773 428.265 570.331 429.823C571.889 431.381 576.562 432.16 577.341 434.107C578.12 436.054 579.289 438.002 582.794 437.612C586.3 437.223 610.059 443.844 613.175 442.676C616.291 441.507 617.07 439.56 618.628 439.56C620.186 439.56 623.302 438.002 623.302 437.612C623.302 437.223 634.208 416.58 634.208 416.58C634.208 416.58 647.061 388.536 627.586 385.42Z" fill="black"/>
<path d="M601.027 363.851C600.861 365.92 600.895 367.999 601.127 370.061C601.718 374.536 603.778 379.201 601.832 383.378C601.126 384.894 599.929 386.215 599.278 387.749C597.898 390.998 599.149 394.6 598.961 398.057C598.719 402.523 595.879 406.826 591.558 409.274C598.94 409.503 605.96 405.853 610.605 400.88C615.249 395.906 617.836 389.738 619.775 383.566C620.772 380.667 621.411 377.658 621.678 374.605C621.832 372.851 621.627 371.084 621.073 369.412C620.391 367.779 619.493 366.245 618.402 364.85C617.239 363.215 616.044 361.548 614.328 360.331C612.215 358.833 608.139 357.328 605.336 357.546C601.897 357.814 601.172 361.465 601.027 363.851Z" fill="#2F2E41"/>
<path d="M612.396 376.073C612.396 376.073 616.68 391.263 613.175 395.547C609.67 399.832 634.208 393.6 634.208 393.6C634.208 393.6 622.133 381.525 627.976 373.736L612.396 376.073Z" fill="#FFB9B9"/>
<path opacity="0.1" d="M612.396 376.073C612.396 376.073 616.68 391.263 613.175 395.547C609.67 399.832 634.208 393.6 634.208 393.6C634.208 393.6 622.133 381.525 627.976 373.736L612.396 376.073Z" fill="black"/>
<path d="M503.8 475.196L553 426.146L503.8 377.096L518.8 362.146L583 426.146L518.8 490.146L503.8 475.196Z" fill="#96FBB9"/>
<path d="M598.374 578.609V589.904L604.217 596.915L609.28 594.578L607.722 578.219L598.374 578.609Z" fill="#FFB9B9"/>
<path d="M600.711 589.125C600.711 589.125 599.153 583.672 596.427 587.567C593.7 591.462 590.974 600.031 589.416 600.42C587.858 600.81 576.952 612.884 587.858 612.884C598.764 612.884 602.269 607.821 602.269 607.821C602.269 607.821 613.175 603.536 613.175 602.757C613.175 601.978 611.617 587.567 610.838 587.567C610.059 587.567 609.669 590.294 607.722 590.294C605.775 590.294 600.711 589.125 600.711 589.125Z" fill="#2F2E41"/>
<path d="M624.47 580.556L624.081 591.073L633.428 594.967V579.777L624.47 580.556Z" fill="#FFB9B9"/>
<path d="M634.597 591.073C634.597 591.073 629.534 585.62 626.807 586.788C625.459 587.331 624.156 587.982 622.912 588.736C622.912 588.736 621.354 593.799 620.575 598.084C619.796 602.368 619.407 604.315 618.628 605.873C617.849 607.431 617.07 613.274 624.86 614.053C632.65 614.832 634.987 610.547 634.987 610.547L636.934 600.42C636.934 600.42 636.155 591.073 634.597 591.073Z" fill="#2F2E41"/>
<path d="M603.438 468.382C603.438 468.382 592.142 493.699 593.7 516.679C593.7 516.679 589.805 525.638 592.142 539.66C594.479 553.681 597.595 581.725 597.595 581.725C597.595 581.725 608.112 582.893 608.891 580.946C608.891 580.946 609.67 561.471 610.449 560.692C611.227 559.913 610.059 541.997 608.891 538.491C607.722 534.986 619.796 500.321 619.796 500.321L616.68 457.087L603.438 468.382Z" fill="#2F2E41"/>
<path opacity="0.1" d="M603.438 468.382C603.438 468.382 592.142 493.699 593.7 516.679C593.7 516.679 589.805 525.638 592.142 539.66C594.479 553.681 597.595 581.725 597.595 581.725C597.595 581.725 608.112 582.893 608.891 580.946C608.891 580.946 609.67 561.471 610.449 560.692C611.227 559.913 610.059 541.997 608.891 538.491C607.722 534.986 619.796 500.321 619.796 500.321L616.68 457.087L603.438 468.382Z" fill="black"/>
<path d="M600.322 466.824L607.722 482.794C607.722 482.794 611.228 519.016 613.175 523.69C613.175 523.69 613.954 536.933 617.459 541.218C620.965 545.502 623.691 583.283 623.691 583.283C623.691 583.283 633.429 586.009 634.208 583.283C634.987 580.556 637.324 561.861 637.324 561.861C637.324 561.861 638.103 545.891 633.818 535.375C629.534 524.859 638.882 487.078 638.882 487.078C638.882 487.078 648.619 468.772 634.597 453.971L600.322 466.824Z" fill="#2F2E41"/>
<path d="M620.965 380.746C629.784 380.746 636.934 373.597 636.934 364.777C636.934 355.958 629.784 348.808 620.965 348.808C612.145 348.808 604.996 355.958 604.996 364.777C604.996 373.597 612.145 380.746 620.965 380.746Z" fill="#FFB9B9"/>
<path d="M635.766 388.926C635.766 388.926 619.017 388.926 616.68 390.873C616.103 391.423 615.336 391.73 614.538 391.73C613.741 391.73 612.974 391.423 612.396 390.873C612.396 390.873 606.554 391.263 604.996 395.937C603.438 400.611 598.764 406.843 598.764 406.843C598.764 406.843 591.753 411.906 595.648 425.149C599.543 438.391 596.427 459.814 596.427 459.814C596.427 459.814 593.311 464.487 596.427 466.435C599.543 468.382 600.711 469.161 600.322 470.719C599.932 472.277 635.766 457.866 635.766 455.14C635.766 452.413 634.987 450.076 635.766 448.908C636.545 447.739 637.324 445.792 636.545 443.844C635.766 441.897 637.324 441.507 636.934 439.56C636.545 437.612 638.882 423.201 640.44 416.969C641.998 410.737 641.608 389.315 635.766 388.926Z" fill="#D0CDE1"/>
<path d="M576.766 427.099C576.766 427.099 561.372 415.411 560.204 419.696C559.035 423.98 571.499 433.717 571.499 433.717L576.766 427.099Z" fill="#FFB9B9"/>
<path d="M627.586 390.873C627.586 390.873 609.28 423.591 608.891 428.265C608.501 432.939 608.501 433.328 606.943 432.939C605.385 432.549 583.963 430.212 582.015 430.991C580.068 431.77 576.173 426.317 576.173 426.317C576.173 426.317 568.773 433.718 570.331 435.276C571.889 436.834 576.562 437.612 577.341 439.56C578.12 441.507 579.289 443.455 582.794 443.065C586.3 442.676 610.059 449.297 613.175 448.129C616.291 446.96 617.07 445.013 618.628 445.013C620.186 445.013 623.302 443.455 623.302 443.065C623.302 442.676 634.208 422.033 634.208 422.033C634.208 422.033 647.061 393.989 627.586 390.873Z" fill="#D0CDE1"/>
<path d="M613.057 374.98C612.836 373.398 612.026 371.963 611.61 370.421C611.285 369.187 611.213 367.9 611.398 366.637C611.583 365.375 612.022 364.163 612.688 363.074C614.978 359.374 619.475 357.736 622.612 354.719C622.677 356.256 623.743 357.569 624.921 358.557C626.099 359.545 627.451 360.346 628.448 361.516C629.407 362.751 630.106 364.167 630.503 365.678C631.117 367.43 631.393 369.282 631.315 371.137C631.27 372.063 631.037 372.971 630.63 373.805C630.224 374.639 629.652 375.382 628.949 375.988C627.781 376.911 626.149 377.438 625.584 378.816C625.362 379.505 625.298 380.234 625.397 380.951C625.664 385.236 625.914 389.598 624.905 393.771C623.896 397.944 621.424 401.976 617.549 403.826C620.733 404.052 623.984 404.272 627.074 403.468C630.163 402.665 633.117 400.641 634.182 397.632C634.708 396.147 634.757 394.496 635.504 393.11C637.393 389.601 642.611 389.441 645.174 386.389C646.199 385.167 646.696 383.593 647.063 382.041C649.227 372.909 647.707 363.212 644.412 354.424C643.277 351.395 641.863 348.345 639.428 346.216C637.355 344.405 634.708 343.407 632.091 342.554C628.271 341.31 624.336 340.291 620.321 340.159C618.577 340.057 616.828 340.261 615.154 340.763C613.502 341.36 611.964 342.236 610.608 343.352C604.319 348.246 600.036 356.068 600.605 364.017C600.949 368.827 602.986 373.379 605.605 377.428C606.52 378.845 608.684 381.865 610.695 380.974C612.518 380.166 613.296 376.688 613.057 374.98Z" fill="#2F2E41"/>
<path d="M363.3 429.646H383.3V409.646H363.3V429.646ZM463.7 409.646H443.7V429.646H463.7V409.646ZM403.5 429.646H423.5V409.646H403.5V429.646Z" fill="#96FBB9"/>
<path d="M247.103 350.045C256.397 350.045 263.931 344.168 263.931 336.919C263.931 329.67 256.397 323.793 247.103 323.793C237.809 323.793 230.274 329.67 230.274 336.919C230.274 344.168 237.809 350.045 247.103 350.045Z" fill="#2F2E41"/>
<path d="M249.964 427.287C249.964 427.287 265.109 428.297 267.802 426.278C270.494 424.258 281.938 428.97 282.948 431.663C283.957 434.355 266.792 434.692 264.1 434.692C261.407 434.692 248.617 438.731 248.617 438.731L249.964 427.287Z" fill="#A0616A"/>
<path d="M218.776 584.068C218.776 584.068 211.718 601.867 215.4 604.015C219.083 606.164 257.751 604.629 257.751 604.629C257.751 604.629 264.196 600.64 256.831 597.878C256.831 597.878 250.693 597.571 246.703 595.116C242.714 592.661 238.11 588.057 238.11 588.057C238.11 588.057 237.803 581.306 235.348 582.84C234.614 583.324 233.988 583.956 233.513 584.696C233.037 585.436 232.722 586.267 232.586 587.136L218.776 584.068Z" fill="#2F2E41"/>
<path opacity="0.1" d="M218.776 584.068C218.776 584.068 211.718 601.867 215.4 604.015C219.083 606.164 257.751 604.629 257.751 604.629C257.751 604.629 264.196 600.64 256.831 597.878C256.831 597.878 250.693 597.571 246.703 595.116C242.714 592.661 238.11 588.057 238.11 588.057C238.11 588.057 237.803 581.306 235.348 582.84C234.614 583.324 233.988 583.956 233.513 584.696C233.037 585.436 232.722 586.267 232.586 587.136L218.776 584.068Z" fill="black"/>
<path d="M336.2 474.696L286.95 425.646L336.15 376.596L321.15 361.646L257 425.646L321.2 489.646L336.2 474.696Z" fill="#96FBB9"/>
<path d="M207.893 589.513C207.893 589.513 200.152 609.034 204.19 611.39C208.229 613.746 250.637 612.063 250.637 612.063C250.637 612.063 257.705 607.687 249.627 604.658C249.627 604.658 242.896 604.322 238.52 601.629C234.145 598.937 229.097 593.888 229.097 593.888C229.097 593.888 228.76 586.484 226.067 588.167C225.262 588.697 224.576 589.391 224.054 590.202C223.533 591.014 223.187 591.925 223.038 592.878L207.893 589.513Z" fill="#2F2E41"/>
<path d="M247.608 465.656L242.896 508.063C242.896 508.063 241.213 528.258 236.164 532.633C236.164 532.633 236.164 539.028 234.482 541.047L232.126 567.636C232.126 567.636 235.491 577.396 235.155 579.079C234.818 580.762 236.501 586.147 236.164 586.82C235.828 587.493 220.009 586.82 220.009 586.82L223.375 532.633L233.808 457.242L247.608 465.656Z" fill="#2F2E41"/>
<path opacity="0.1" d="M247.608 465.656L242.896 508.063C242.896 508.063 241.213 528.258 236.164 532.633C236.164 532.633 236.164 539.028 234.482 541.047L232.126 567.636C232.126 567.636 235.491 577.396 235.155 579.079C234.818 580.762 236.501 586.147 236.164 586.82C235.828 587.493 220.009 586.82 220.009 586.82L223.375 532.633L233.808 457.242L247.608 465.656Z" fill="black"/>
<path d="M239.194 464.31C239.194 464.31 235.491 498.976 233.808 506.381C232.75 511.257 232.075 516.208 231.789 521.19C231.789 521.19 231.452 531.96 228.423 534.989C227.537 535.866 226.841 536.917 226.378 538.075C225.914 539.233 225.694 540.474 225.731 541.72C225.731 541.72 222.702 575.714 224.385 579.752C226.067 583.791 227.75 587.157 226.067 589.849C224.385 592.542 205.873 592.542 205.873 590.522C205.873 588.503 205.873 586.82 204.864 585.811C203.854 584.801 204.864 578.406 204.864 578.406C204.864 578.406 200.825 548.452 204.527 539.701C208.229 530.95 209.912 507.054 209.912 507.054C209.912 507.054 207.22 479.792 203.854 475.416C200.488 471.041 204.527 455.559 204.527 455.559L239.194 464.31Z" fill="#2F2E41"/>
<path d="M229.718 356.655C230.109 357.547 231.046 358.043 231.898 358.513C236.84 361.235 240.976 365.182 245.051 369.084C244.034 365.638 244.251 361.945 245.664 358.641C246.151 357.515 246.788 356.304 246.44 355.127C246.185 354.261 245.448 353.637 244.734 353.085C243.071 351.799 241.333 350.613 239.529 349.534C238.269 348.78 235.678 346.773 234.232 346.991C234.156 348.945 234.116 350.692 233.26 352.518C233.057 352.951 229.867 356.996 229.718 356.655Z" fill="#A0616A"/>
<path d="M246.935 360.983C254.556 360.983 260.734 354.805 260.734 347.184C260.734 339.563 254.556 333.385 246.935 333.385C239.313 333.385 233.135 339.563 233.135 347.184C233.135 354.805 239.313 360.983 246.935 360.983Z" fill="#A0616A"/>
<path d="M247.608 379.831C247.608 379.831 249.964 368.051 243.232 364.013C236.501 359.974 228.76 355.262 228.76 355.262C228.76 355.262 226.404 354.925 225.394 359.974C225.394 359.974 206.21 363.676 204.19 381.851C202.171 400.025 205.537 426.614 205.537 426.614C205.537 426.614 202.508 449.837 198.805 462.29C198.805 462.29 195.776 464.983 209.239 460.944C222.702 456.905 246.262 472.387 246.262 472.387C246.262 472.387 248.617 470.031 248.617 468.348C248.617 466.666 251.31 456.905 251.31 456.905C251.31 456.905 253.666 415.507 254.676 410.795C255.685 406.084 250.637 380.504 247.608 379.831Z" fill="#575A89"/>
<path d="M243.682 348.606C244.511 348.146 245.441 347.899 246.389 347.885C247.338 347.871 248.264 347.595 249.066 347.087C250.37 346.087 250.465 344.153 251.419 342.814C252.799 340.877 255.553 340.643 257.931 340.74C259.385 340.8 260.951 340.886 262.175 340.1C263.432 339.293 264.002 337.772 264.425 336.339C264.927 334.645 265.251 332.573 264.009 331.317C263.146 330.445 261.785 330.272 260.827 329.506C259.834 328.711 259.425 327.419 258.885 326.267C258.27 324.864 257.298 323.646 256.066 322.736C254.259 321.481 251.95 321.199 249.75 321.222C247.549 321.246 245.339 321.535 243.155 321.265C241.366 321.044 239.581 320.449 237.798 320.713C235.525 321.049 233.644 322.764 232.524 324.77C231.405 326.776 230.924 329.066 230.458 331.316L229.191 337.435C228.798 339.333 228.403 341.281 228.706 343.195C229.335 347.163 232.845 350.318 233.087 354.328C233.317 353.221 233.819 352.188 234.547 351.322C235.275 350.456 236.207 349.785 237.258 349.368C237.522 349.239 237.821 349.203 238.108 349.265C238.457 349.376 238.66 349.725 238.88 350.017C239.457 350.784 241.268 351.946 242.295 351.403C243.213 350.916 242.528 349.389 243.682 348.606Z" fill="#2F2E41"/>
<path d="M208.902 411.469C208.902 411.469 206.546 426.278 216.307 424.931C216.307 424.931 221.355 424.258 222.029 424.931C222.702 425.604 247.608 421.229 250.973 417.527C250.973 417.527 255.012 416.181 257.032 418.2C259.051 420.219 279.245 422.239 273.187 416.181C267.129 410.122 257.705 408.776 257.705 408.776L244.915 409.449C244.915 409.449 238.184 411.469 234.145 409.449C230.106 407.43 218.663 408.103 218.663 408.103L208.902 411.469Z" fill="#A0616A"/>
<path d="M222.702 364.686C222.702 364.686 207.556 366.369 207.556 388.245V416.181C207.556 416.181 215.97 412.478 217.653 412.815C219.336 413.151 226.067 408.439 226.067 408.439C226.067 408.439 233.808 390.265 233.135 385.216C232.462 380.168 232.799 365.359 222.702 364.686Z" fill="#575A89"/>
<path d="M246.935 345.333C254.091 345.333 259.893 342.319 259.893 338.602C259.893 334.884 254.091 331.87 246.935 331.87C239.778 331.87 233.977 334.884 233.977 338.602C233.977 342.319 239.778 345.333 246.935 345.333Z" fill="#2F2E41"/>
<path d="M234.818 351.055C237.328 351.055 239.362 346.007 239.362 339.78C239.362 333.553 237.328 328.505 234.818 328.505C232.309 328.505 230.274 333.553 230.274 339.78C230.274 346.007 232.309 351.055 234.818 351.055Z" fill="#2F2E41"/>
</g>
<defs>
<linearGradient id="paint0_linear" x1="611" y1="-187" x2="611" y2="963" gradientUnits="userSpaceOnUse">
<stop stop-color="#93F5E4"/>
<stop offset="0.479167" stop-color="#95FABE"/>
<stop offset="0.479267" stop-color="#95FABE"/>
<stop offset="1" stop-color="#97FF95"/>
</linearGradient>
<linearGradient id="paint1_linear" x1="611" y1="-187" x2="611" y2="963" gradientUnits="userSpaceOnUse">
<stop stop-color="#93F5E4"/>
<stop offset="0.479167" stop-color="#95FABE"/>
<stop offset="0.479267" stop-color="#95FABE"/>
<stop offset="1" stop-color="#97FF95"/>
</linearGradient>
<clipPath id="clip0">
<rect width="544" height="413.145" fill="white" transform="translate(144 231)"/>
</clipPath>
</defs>
</svg>
